<?xml version="1.0" encoding="utf-8" standalone="no"?>
<!DOCTYPE svg PUBLIC "-//W3C//DTD SVG 1.1//EN"
  "http://www.w3.org/Graphics/SVG/1.1/DTD/svg11.dtd">
<!-- Created with matplotlib (http://matplotlib.org/) -->
<svg height="288pt" version="1.1" viewBox="0 0 432 288" width="432pt" xmlns="http://www.w3.org/2000/svg" xmlns:xlink="http://www.w3.org/1999/xlink">
 <defs>
  <style type="text/css">
*{stroke-linecap:butt;stroke-linejoin:round;}
  </style>
 </defs>
 <g id="figure_1">
  <g id="patch_1">
   <path d="M 0 288 
L 432 288 
L 432 0 
L 0 0 
z
" style="fill:#ffffff;"/>
  </g>
  <g id="axes_1">
   <g id="patch_2">
    <path d="M 0 288 
L 432 288 
L 432 0 
L 0 0 
z
" style="fill:#ffffff;"/>
   </g>
   <g id="matplotlib.axis_1">
    <g id="xtick_1">
     <g id="line2d_1">
      <defs>
       <path d="M 0 0 
L 0 3.5 
" id="md39bee4bb3" style="stroke:#000000;stroke-width:0.8;"/>
      </defs>
      <g>
       <use style="stroke:#000000;stroke-width:0.8;" x="19.324979" xlink:href="#md39bee4bb3" y="288"/>
      </g>
     </g>
     <g id="text_1">
      <!-- 0.0 -->
      <defs>
       <path d="M 31.78125 66.40625 
Q 24.171875 66.40625 20.328125 58.90625 
Q 16.5 51.421875 16.5 36.375 
Q 16.5 21.390625 20.328125 13.890625 
Q 24.171875 6.390625 31.78125 6.390625 
Q 39.453125 6.390625 43.28125 13.890625 
Q 47.125 21.390625 47.125 36.375 
Q 47.125 51.421875 43.28125 58.90625 
Q 39.453125 66.40625 31.78125 66.40625 
z
M 31.78125 74.21875 
Q 44.046875 74.21875 50.515625 64.515625 
Q 56.984375 54.828125 56.984375 36.375 
Q 56.984375 17.96875 50.515625 8.265625 
Q 44.046875 -1.421875 31.78125 -1.421875 
Q 19.53125 -1.421875 13.0625 8.265625 
Q 6.59375 17.96875 6.59375 36.375 
Q 6.59375 54.828125 13.0625 64.515625 
Q 19.53125 74.21875 31.78125 74.21875 
z
" id="DejaVuSans-30"/>
       <path d="M 10.6875 12.40625 
L 21 12.40625 
L 21 0 
L 10.6875 0 
z
" id="DejaVuSans-2e"/>
      </defs>
      <g transform="translate(11.373416 302.598437)scale(0.1 -0.1)">
       <use xlink:href="#DejaVuSans-30"/>
       <use x="63.623047" xlink:href="#DejaVuSans-2e"/>
       <use x="95.410156" xlink:href="#DejaVuSans-30"/>
      </g>
     </g>
    </g>
    <g id="xtick_2">
     <g id="line2d_2">
      <g>
       <use style="stroke:#000000;stroke-width:0.8;" x="98.156592" xlink:href="#md39bee4bb3" y="288"/>
      </g>
     </g>
     <g id="text_2">
      <!-- 0.2 -->
      <defs>
       <path d="M 19.1875 8.296875 
L 53.609375 8.296875 
L 53.609375 0 
L 7.328125 0 
L 7.328125 8.296875 
Q 12.9375 14.109375 22.625 23.890625 
Q 32.328125 33.6875 34.8125 36.53125 
Q 39.546875 41.84375 41.421875 45.53125 
Q 43.3125 49.21875 43.3125 52.78125 
Q 43.3125 58.59375 39.234375 62.25 
Q 35.15625 65.921875 28.609375 65.921875 
Q 23.96875 65.921875 18.8125 64.3125 
Q 13.671875 62.703125 7.8125 59.421875 
L 7.8125 69.390625 
Q 13.765625 71.78125 18.9375 73 
Q 24.125 74.21875 28.421875 74.21875 
Q 39.75 74.21875 46.484375 68.546875 
Q 53.21875 62.890625 53.21875 53.421875 
Q 53.21875 48.921875 51.53125 44.890625 
Q 49.859375 40.875 45.40625 35.40625 
Q 44.1875 33.984375 37.640625 27.21875 
Q 31.109375 20.453125 19.1875 8.296875 
z
" id="DejaVuSans-32"/>
      </defs>
      <g transform="translate(90.20503 302.598437)scale(0.1 -0.1)">
       <use xlink:href="#DejaVuSans-30"/>
       <use x="63.623047" xlink:href="#DejaVuSans-2e"/>
       <use x="95.410156" xlink:href="#DejaVuSans-32"/>
      </g>
     </g>
    </g>
    <g id="xtick_3">
     <g id="line2d_3">
      <g>
       <use style="stroke:#000000;stroke-width:0.8;" x="176.988205" xlink:href="#md39bee4bb3" y="288"/>
      </g>
     </g>
     <g id="text_3">
      <!-- 0.4 -->
      <defs>
       <path d="M 37.796875 64.3125 
L 12.890625 25.390625 
L 37.796875 25.390625 
z
M 35.203125 72.90625 
L 47.609375 72.90625 
L 47.609375 25.390625 
L 58.015625 25.390625 
L 58.015625 17.1875 
L 47.609375 17.1875 
L 47.609375 0 
L 37.796875 0 
L 37.796875 17.1875 
L 4.890625 17.1875 
L 4.890625 26.703125 
z
" id="DejaVuSans-34"/>
      </defs>
      <g transform="translate(169.036643 302.598437)scale(0.1 -0.1)">
       <use xlink:href="#DejaVuSans-30"/>
       <use x="63.623047" xlink:href="#DejaVuSans-2e"/>
       <use x="95.410156" xlink:href="#DejaVuSans-34"/>
      </g>
     </g>
    </g>
    <g id="xtick_4">
     <g id="line2d_4">
      <g>
       <use style="stroke:#000000;stroke-width:0.8;" x="255.819819" xlink:href="#md39bee4bb3" y="288"/>
      </g>
     </g>
     <g id="text_4">
      <!-- 0.6 -->
      <defs>
       <path d="M 33.015625 40.375 
Q 26.375 40.375 22.484375 35.828125 
Q 18.609375 31.296875 18.609375 23.390625 
Q 18.609375 15.53125 22.484375 10.953125 
Q 26.375 6.390625 33.015625 6.390625 
Q 39.65625 6.390625 43.53125 10.953125 
Q 47.40625 15.53125 47.40625 23.390625 
Q 47.40625 31.296875 43.53125 35.828125 
Q 39.65625 40.375 33.015625 40.375 
z
M 52.59375 71.296875 
L 52.59375 62.3125 
Q 48.875 64.0625 45.09375 64.984375 
Q 41.3125 65.921875 37.59375 65.921875 
Q 27.828125 65.921875 22.671875 59.328125 
Q 17.53125 52.734375 16.796875 39.40625 
Q 19.671875 43.65625 24.015625 45.921875 
Q 28.375 48.1875 33.59375 48.1875 
Q 44.578125 48.1875 50.953125 41.515625 
Q 57.328125 34.859375 57.328125 23.390625 
Q 57.328125 12.15625 50.6875 5.359375 
Q 44.046875 -1.421875 33.015625 -1.421875 
Q 20.359375 -1.421875 13.671875 8.265625 
Q 6.984375 17.96875 6.984375 36.375 
Q 6.984375 53.65625 15.1875 63.9375 
Q 23.390625 74.21875 37.203125 74.21875 
Q 40.921875 74.21875 44.703125 73.484375 
Q 48.484375 72.75 52.59375 71.296875 
z
" id="DejaVuSans-36"/>
      </defs>
      <g transform="translate(247.868256 302.598437)scale(0.1 -0.1)">
       <use xlink:href="#DejaVuSans-30"/>
       <use x="63.623047" xlink:href="#DejaVuSans-2e"/>
       <use x="95.410156" xlink:href="#DejaVuSans-36"/>
      </g>
     </g>
    </g>
    <g id="xtick_5">
     <g id="line2d_5">
      <g>
       <use style="stroke:#000000;stroke-width:0.8;" x="334.651432" xlink:href="#md39bee4bb3" y="288"/>
      </g>
     </g>
     <g id="text_5">
      <!-- 0.8 -->
      <defs>
       <path d="M 31.78125 34.625 
Q 24.75 34.625 20.71875 30.859375 
Q 16.703125 27.09375 16.703125 20.515625 
Q 16.703125 13.921875 20.71875 10.15625 
Q 24.75 6.390625 31.78125 6.390625 
Q 38.8125 6.390625 42.859375 10.171875 
Q 46.921875 13.96875 46.921875 20.515625 
Q 46.921875 27.09375 42.890625 30.859375 
Q 38.875 34.625 31.78125 34.625 
z
M 21.921875 38.8125 
Q 15.578125 40.375 12.03125 44.71875 
Q 8.5 49.078125 8.5 55.328125 
Q 8.5 64.0625 14.71875 69.140625 
Q 20.953125 74.21875 31.78125 74.21875 
Q 42.671875 74.21875 48.875 69.140625 
Q 55.078125 64.0625 55.078125 55.328125 
Q 55.078125 49.078125 51.53125 44.71875 
Q 48 40.375 41.703125 38.8125 
Q 48.828125 37.15625 52.796875 32.3125 
Q 56.78125 27.484375 56.78125 20.515625 
Q 56.78125 9.90625 50.3125 4.234375 
Q 43.84375 -1.421875 31.78125 -1.421875 
Q 19.734375 -1.421875 13.25 4.234375 
Q 6.78125 9.90625 6.78125 20.515625 
Q 6.78125 27.484375 10.78125 32.3125 
Q 14.796875 37.15625 21.921875 38.8125 
z
M 18.3125 54.390625 
Q 18.3125 48.734375 21.84375 45.5625 
Q 25.390625 42.390625 31.78125 42.390625 
Q 38.140625 42.390625 41.71875 45.5625 
Q 45.3125 48.734375 45.3125 54.390625 
Q 45.3125 60.0625 41.71875 63.234375 
Q 38.140625 66.40625 31.78125 66.40625 
Q 25.390625 66.40625 21.84375 63.234375 
Q 18.3125 60.0625 18.3125 54.390625 
z
" id="DejaVuSans-38"/>
      </defs>
      <g transform="translate(326.699869 302.598437)scale(0.1 -0.1)">
       <use xlink:href="#DejaVuSans-30"/>
       <use x="63.623047" xlink:href="#DejaVuSans-2e"/>
       <use x="95.410156" xlink:href="#DejaVuSans-38"/>
      </g>
     </g>
    </g>
    <g id="xtick_6">
     <g id="line2d_6">
      <g>
       <use style="stroke:#000000;stroke-width:0.8;" x="413.483045" xlink:href="#md39bee4bb3" y="288"/>
      </g>
     </g>
     <g id="text_6">
      <!-- 1.0 -->
      <defs>
       <path d="M 12.40625 8.296875 
L 28.515625 8.296875 
L 28.515625 63.921875 
L 10.984375 60.40625 
L 10.984375 69.390625 
L 28.421875 72.90625 
L 38.28125 72.90625 
L 38.28125 8.296875 
L 54.390625 8.296875 
L 54.390625 0 
L 12.40625 0 
z
" id="DejaVuSans-31"/>
      </defs>
      <g transform="translate(405.531483 302.598437)scale(0.1 -0.1)">
       <use xlink:href="#DejaVuSans-31"/>
       <use x="63.623047" xlink:href="#DejaVuSans-2e"/>
       <use x="95.410156" xlink:href="#DejaVuSans-30"/>
      </g>
     </g>
    </g>
    <g id="text_7">
     <!-- Threshold -->
     <defs>
      <path d="M -0.296875 72.90625 
L 61.375 72.90625 
L 61.375 64.59375 
L 35.5 64.59375 
L 35.5 0 
L 25.59375 0 
L 25.59375 64.59375 
L -0.296875 64.59375 
z
" id="DejaVuSans-54"/>
      <path d="M 54.890625 33.015625 
L 54.890625 0 
L 45.90625 0 
L 45.90625 32.71875 
Q 45.90625 40.484375 42.875 44.328125 
Q 39.84375 48.1875 33.796875 48.1875 
Q 26.515625 48.1875 22.3125 43.546875 
Q 18.109375 38.921875 18.109375 30.90625 
L 18.109375 0 
L 9.078125 0 
L 9.078125 75.984375 
L 18.109375 75.984375 
L 18.109375 46.1875 
Q 21.34375 51.125 25.703125 53.5625 
Q 30.078125 56 35.796875 56 
Q 45.21875 56 50.046875 50.171875 
Q 54.890625 44.34375 54.890625 33.015625 
z
" id="DejaVuSans-68"/>
      <path d="M 41.109375 46.296875 
Q 39.59375 47.171875 37.8125 47.578125 
Q 36.03125 48 33.890625 48 
Q 26.265625 48 22.1875 43.046875 
Q 18.109375 38.09375 18.109375 28.8125 
L 18.109375 0 
L 9.078125 0 
L 9.078125 54.6875 
L 18.109375 54.6875 
L 18.109375 46.1875 
Q 20.953125 51.171875 25.484375 53.578125 
Q 30.03125 56 36.53125 56 
Q 37.453125 56 38.578125 55.875 
Q 39.703125 55.765625 41.0625 55.515625 
z
" id="DejaVuSans-72"/>
      <path d="M 56.203125 29.59375 
L 56.203125 25.203125 
L 14.890625 25.203125 
Q 15.484375 15.921875 20.484375 11.0625 
Q 25.484375 6.203125 34.421875 6.203125 
Q 39.59375 6.203125 44.453125 7.46875 
Q 49.3125 8.734375 54.109375 11.28125 
L 54.109375 2.78125 
Q 49.265625 0.734375 44.1875 -0.34375 
Q 39.109375 -1.421875 33.890625 -1.421875 
Q 20.796875 -1.421875 13.15625 6.1875 
Q 5.515625 13.8125 5.515625 26.8125 
Q 5.515625 40.234375 12.765625 48.109375 
Q 20.015625 56 32.328125 56 
Q 43.359375 56 49.78125 48.890625 
Q 56.203125 41.796875 56.203125 29.59375 
z
M 47.21875 32.234375 
Q 47.125 39.59375 43.09375 43.984375 
Q 39.0625 48.390625 32.421875 48.390625 
Q 24.90625 48.390625 20.390625 44.140625 
Q 15.875 39.890625 15.1875 32.171875 
z
" id="DejaVuSans-65"/>
      <path d="M 44.28125 53.078125 
L 44.28125 44.578125 
Q 40.484375 46.53125 36.375 47.5 
Q 32.28125 48.484375 27.875 48.484375 
Q 21.1875 48.484375 17.84375 46.4375 
Q 14.5 44.390625 14.5 40.28125 
Q 14.5 37.15625 16.890625 35.375 
Q 19.28125 33.59375 26.515625 31.984375 
L 29.59375 31.296875 
Q 39.15625 29.25 43.1875 25.515625 
Q 47.21875 21.78125 47.21875 15.09375 
Q 47.21875 7.46875 41.1875 3.015625 
Q 35.15625 -1.421875 24.609375 -1.421875 
Q 20.21875 -1.421875 15.453125 -0.5625 
Q 10.6875 0.296875 5.421875 2 
L 5.421875 11.28125 
Q 10.40625 8.6875 15.234375 7.390625 
Q 20.0625 6.109375 24.8125 6.109375 
Q 31.15625 6.109375 34.5625 8.28125 
Q 37.984375 10.453125 37.984375 14.40625 
Q 37.984375 18.0625 35.515625 20.015625 
Q 33.0625 21.96875 24.703125 23.78125 
L 21.578125 24.515625 
Q 13.234375 26.265625 9.515625 29.90625 
Q 5.8125 33.546875 5.8125 39.890625 
Q 5.8125 47.609375 11.28125 51.796875 
Q 16.75 56 26.8125 56 
Q 31.78125 56 36.171875 55.265625 
Q 40.578125 54.546875 44.28125 53.078125 
z
" id="DejaVuSans-73"/>
      <path d="M 30.609375 48.390625 
Q 23.390625 48.390625 19.1875 42.75 
Q 14.984375 37.109375 14.984375 27.296875 
Q 14.984375 17.484375 19.15625 11.84375 
Q 23.34375 6.203125 30.609375 6.203125 
Q 37.796875 6.203125 41.984375 11.859375 
Q 46.1875 17.53125 46.1875 27.296875 
Q 46.1875 37.015625 41.984375 42.703125 
Q 37.796875 48.390625 30.609375 48.390625 
z
M 30.609375 56 
Q 42.328125 56 49.015625 48.375 
Q 55.71875 40.765625 55.71875 27.296875 
Q 55.71875 13.875 49.015625 6.21875 
Q 42.328125 -1.421875 30.609375 -1.421875 
Q 18.84375 -1.421875 12.171875 6.21875 
Q 5.515625 13.875 5.515625 27.296875 
Q 5.515625 40.765625 12.171875 48.375 
Q 18.84375 56 30.609375 56 
z
" id="DejaVuSans-6f"/>
      <path d="M 9.421875 75.984375 
L 18.40625 75.984375 
L 18.40625 0 
L 9.421875 0 
z
" id="DejaVuSans-6c"/>
      <path d="M 45.40625 46.390625 
L 45.40625 75.984375 
L 54.390625 75.984375 
L 54.390625 0 
L 45.40625 0 
L 45.40625 8.203125 
Q 42.578125 3.328125 38.25 0.953125 
Q 33.9375 -1.421875 27.875 -1.421875 
Q 17.96875 -1.421875 11.734375 6.484375 
Q 5.515625 14.40625 5.515625 27.296875 
Q 5.515625 40.1875 11.734375 48.09375 
Q 17.96875 56 27.875 56 
Q 33.9375 56 38.25 53.625 
Q 42.578125 51.265625 45.40625 46.390625 
z
M 14.796875 27.296875 
Q 14.796875 17.390625 18.875 11.75 
Q 22.953125 6.109375 30.078125 6.109375 
Q 37.203125 6.109375 41.296875 11.75 
Q 45.40625 17.390625 45.40625 27.296875 
Q 45.40625 37.203125 41.296875 42.84375 
Q 37.203125 48.484375 30.078125 48.484375 
Q 22.953125 48.484375 18.875 42.84375 
Q 14.796875 37.203125 14.796875 27.296875 
z
" id="DejaVuSans-64"/>
     </defs>
     <g transform="translate(191.250781 316.276563)scale(0.1 -0.1)">
      <use xlink:href="#DejaVuSans-54"/>
      <use x="61.083984" xlink:href="#DejaVuSans-68"/>
      <use x="124.462891" xlink:href="#DejaVuSans-72"/>
      <use x="165.544922" xlink:href="#DejaVuSans-65"/>
      <use x="227.068359" xlink:href="#DejaVuSans-73"/>
      <use x="279.167969" xlink:href="#DejaVuSans-68"/>
      <use x="342.546875" xlink:href="#DejaVuSans-6f"/>
      <use x="403.728516" xlink:href="#DejaVuSans-6c"/>
      <use x="431.511719" xlink:href="#DejaVuSans-64"/>
     </g>
    </g>
   </g>
   <g id="matplotlib.axis_2">
    <g id="ytick_1">
     <g id="line2d_7">
      <defs>
       <path d="M 0 0 
L -3.5 0 
" id="md055e23abd" style="stroke:#000000;stroke-width:0.8;"/>
      </defs>
      <g>
       <use style="stroke:#000000;stroke-width:0.8;" x="0" xlink:href="#md055e23abd" y="274.909091"/>
      </g>
     </g>
     <g id="text_8">
      <!-- 0.0 -->
      <g transform="translate(-22.903125 278.70831)scale(0.1 -0.1)">
       <use xlink:href="#DejaVuSans-30"/>
       <use x="63.623047" xlink:href="#DejaVuSans-2e"/>
       <use x="95.410156" xlink:href="#DejaVuSans-30"/>
      </g>
     </g>
    </g>
    <g id="ytick_2">
     <g id="line2d_8">
      <g>
       <use style="stroke:#000000;stroke-width:0.8;" x="0" xlink:href="#md055e23abd" y="222.545455"/>
      </g>
     </g>
     <g id="text_9">
      <!-- 0.2 -->
      <g transform="translate(-22.903125 226.344673)scale(0.1 -0.1)">
       <use xlink:href="#DejaVuSans-30"/>
       <use x="63.623047" xlink:href="#DejaVuSans-2e"/>
       <use x="95.410156" xlink:href="#DejaVuSans-32"/>
      </g>
     </g>
    </g>
    <g id="ytick_3">
     <g id="line2d_9">
      <g>
       <use style="stroke:#000000;stroke-width:0.8;" x="0" xlink:href="#md055e23abd" y="170.181818"/>
      </g>
     </g>
     <g id="text_10">
      <!-- 0.4 -->
      <g transform="translate(-22.903125 173.981037)scale(0.1 -0.1)">
       <use xlink:href="#DejaVuSans-30"/>
       <use x="63.623047" xlink:href="#DejaVuSans-2e"/>
       <use x="95.410156" xlink:href="#DejaVuSans-34"/>
      </g>
     </g>
    </g>
    <g id="ytick_4">
     <g id="line2d_10">
      <g>
       <use style="stroke:#000000;stroke-width:0.8;" x="0" xlink:href="#md055e23abd" y="117.818182"/>
      </g>
     </g>
     <g id="text_11">
      <!-- 0.6 -->
      <g transform="translate(-22.903125 121.617401)scale(0.1 -0.1)">
       <use xlink:href="#DejaVuSans-30"/>
       <use x="63.623047" xlink:href="#DejaVuSans-2e"/>
       <use x="95.410156" xlink:href="#DejaVuSans-36"/>
      </g>
     </g>
    </g>
    <g id="ytick_5">
     <g id="line2d_11">
      <g>
       <use style="stroke:#000000;stroke-width:0.8;" x="0" xlink:href="#md055e23abd" y="65.454545"/>
      </g>
     </g>
     <g id="text_12">
      <!-- 0.8 -->
      <g transform="translate(-22.903125 69.253764)scale(0.1 -0.1)">
       <use xlink:href="#DejaVuSans-30"/>
       <use x="63.623047" xlink:href="#DejaVuSans-2e"/>
       <use x="95.410156" xlink:href="#DejaVuSans-38"/>
      </g>
     </g>
    </g>
    <g id="ytick_6">
     <g id="line2d_12">
      <g>
       <use style="stroke:#000000;stroke-width:0.8;" x="0" xlink:href="#md055e23abd" y="13.090909"/>
      </g>
     </g>
     <g id="text_13">
      <!-- 1.0 -->
      <g transform="translate(-22.903125 16.890128)scale(0.1 -0.1)">
       <use xlink:href="#DejaVuSans-31"/>
       <use x="63.623047" xlink:href="#DejaVuSans-2e"/>
       <use x="95.410156" xlink:href="#DejaVuSans-30"/>
      </g>
     </g>
    </g>
   </g>
   <g id="line2d_13">
    <path clip-path="url(#p24381c835c)" d="M 19.636364 13.090909 
L 35.899325 13.090909 
L 36.00969 13.352727 
L 47.574287 13.352727 
L 47.688593 13.614545 
L 55.544163 13.614545 
L 55.662411 13.876364 
L 64.054036 13.876364 
L 64.160459 14.138182 
L 72.153984 14.138182 
L 72.284057 14.4 
L 79.512916 14.4 
L 79.642988 14.661818 
L 86.253018 14.661818 
L 86.363383 14.923636 
L 92.898523 14.923636 
L 93.004946 15.185455 
L 100.553073 15.185455 
L 100.667379 15.447273 
L 107.454781 15.447273 
L 107.561204 15.709091 
L 113.788901 15.709091 
L 113.891382 15.970909 
L 121.147832 15.970909 
L 121.262138 16.232727 
L 128.447639 16.232727 
L 128.534354 16.494545 
L 136.192845 16.494545 
L 136.295327 16.756364 
L 142.278646 16.756364 
L 142.396893 17.018182 
L 149.539038 17.018182 
L 149.665168 17.28 
L 157.840006 17.28 
L 157.950371 17.541818 
L 166.353821 17.541818 
L 166.468127 17.803636 
L 175.088363 17.803636 
L 175.182961 18.065455 
L 183.424807 18.065455 
L 183.554879 18.327273 
L 190.929576 18.327273 
L 191.055707 18.589091 
L 200.137109 18.589091 
L 200.251414 18.850909 
L 209.108146 18.850909 
L 209.246102 19.112727 
L 217.436706 19.112727 
L 217.554954 19.374545 
L 226.979273 19.374545 
L 227.093579 19.636364 
L 233.273977 19.636364 
L 233.360692 19.898182 
L 241.626187 19.898182 
L 241.764142 20.16 
L 248.748623 20.16 
L 248.862929 20.421818 
L 255.362595 20.421818 
L 255.551791 20.683636 
L 262.686052 20.683636 
L 262.757001 20.945455 
L 270.58498 20.945455 
L 270.624396 21.207273 
L 277.995151 21.207273 
L 278.04245 21.469091 
L 283.505481 21.469091 
L 283.659203 21.730909 
L 289.693763 21.730909 
L 289.788361 21.992727 
L 295.24745 21.992727 
L 295.373581 22.254545 
L 300.269024 22.254545 
L 300.367563 22.516364 
L 304.569288 22.516364 
L 304.659945 22.778182 
L 309.472615 22.778182 
L 309.590862 23.04 
L 313.224999 23.04 
L 313.339305 23.301818 
L 317.513439 23.301818 
L 317.635628 23.563636 
L 321.82947 23.563636 
L 321.931951 23.825455 
L 325.94448 23.825455 
L 326.046961 24.087273 
L 329.377597 24.087273 
L 329.452487 24.349091 
L 333.094508 24.349091 
L 333.216697 24.610909 
L 336.507916 24.610909 
L 336.630105 24.872727 
L 339.78337 24.872727 
L 339.889793 25.134545 
L 342.672549 25.134545 
L 342.767147 25.396364 
L 345.66815 25.396364 
L 345.774573 25.658182 
L 348.427256 25.658182 
L 348.517913 25.92 
L 351.07994 25.92 
L 351.194246 26.181818 
L 353.421239 26.181818 
L 353.535545 26.443636 
L 355.581225 26.443636 
L 355.69159 26.705455 
L 357.544132 26.705455 
L 357.63873 26.967273 
L 359.648937 26.967273 
L 359.767184 27.229091 
L 361.635493 27.229091 
L 361.761624 27.490909 
L 363.685115 27.490909 
L 363.795479 27.752727 
L 365.36817 27.752727 
L 365.490359 28.014545 
L 367.011809 28.014545 
L 367.133998 28.276364 
L 368.470194 28.276364 
L 368.568734 28.538182 
L 369.885222 28.538182 
L 370.023177 28.8 
L 371.390905 28.8 
L 371.50127 29.061818 
L 372.636445 29.061818 
L 372.738926 29.323636 
L 373.866218 29.323636 
L 373.980524 29.585455 
L 375.285187 29.585455 
L 375.399493 29.847273 
L 376.353355 29.847273 
L 376.467661 30.109091 
L 377.508239 30.109091 
L 377.622544 30.370909 
L 378.568524 30.370909 
L 378.68283 30.632727 
L 379.636692 30.632727 
L 379.750998 30.894545 
L 380.637854 30.894545 
L 380.752159 31.156364 
L 381.62719 31.156364 
L 381.749379 31.418182 
L 382.577111 31.418182 
L 382.6993 31.68 
L 383.491558 31.68 
L 383.605864 31.941818 
L 384.382355 31.941818 
L 384.500603 32.203636 
L 385.174613 32.203636 
L 385.284977 32.465455 
L 385.935338 32.465455 
L 386.049644 32.727273 
L 386.735479 32.727273 
L 386.849785 32.989091 
L 387.429197 32.989091 
L 387.543503 33.250909 
L 388.051967 33.250909 
L 388.174156 33.512727 
L 388.635321 33.512727 
L 388.749627 33.774545 
L 389.297506 33.774545 
L 389.407871 34.036364 
L 389.936042 34.036364 
L 390.05429 34.298182 
L 390.519396 34.298182 
L 390.633702 34.56 
L 391.114575 34.56 
L 391.228881 34.821818 
L 391.745228 34.821818 
L 391.859534 35.083636 
L 392.222159 35.083636 
L 392.336465 35.345455 
L 392.742448 35.345455 
L 392.864637 35.607273 
L 393.227262 35.607273 
L 393.341568 35.869091 
L 393.660836 35.869091 
L 393.775142 36.130909 
L 394.058936 36.130909 
L 394.173242 36.392727 
L 394.484626 36.392727 
L 394.602874 36.654545 
L 394.922142 36.654545 
L 395.036448 36.916364 
L 395.300534 36.916364 
L 395.410898 37.178182 
L 395.667101 37.178182 
L 395.785348 37.44 
L 396.045492 37.44 
L 396.155857 37.701818 
L 396.443592 37.701818 
L 396.557898 37.963636 
L 396.814101 37.963636 
L 396.924465 38.225455 
L 397.153077 38.225455 
L 397.267382 38.487273 
L 397.464461 38.487273 
L 397.578767 38.749091 
L 397.815262 38.749091 
L 397.929568 39.010909 
L 398.130589 39.010909 
L 398.244894 39.272727 
L 398.43409 39.272727 
L 398.548396 39.534545 
L 398.73365 39.534545 
L 398.847956 39.796364 
L 399.009561 39.796364 
L 399.123867 40.058182 
L 399.273647 40.058182 
L 399.387953 40.32 
L 399.549558 40.32 
L 399.663863 40.581818 
L 399.793936 40.581818 
L 399.908241 40.843636 
L 400.073788 40.843636 
L 400.188094 41.105455 
L 400.326049 41.105455 
L 400.440355 41.367273 
L 400.554661 41.367273 
L 400.668967 41.629091 
L 400.822688 41.629091 
L 400.936994 41.890909 
L 401.043417 41.890909 
L 401.157723 42.152727 
L 401.25232 42.152727 
L 401.366626 42.414545 
L 401.445458 42.414545 
L 401.559764 42.676364 
L 401.642537 42.676364 
L 401.756843 42.938182 
L 401.819908 42.938182 
L 401.934214 43.2 
L 402.009104 43.2 
L 402.12341 43.461818 
L 402.194358 43.461818 
L 402.308664 43.723636 
L 402.371729 43.723636 
L 402.486035 43.985455 
L 402.560925 43.985455 
L 402.675231 44.247273 
L 402.726472 44.247273 
L 402.840777 44.509091 
L 402.903843 44.509091 
L 403.018149 44.770909 
L 403.089097 44.770909 
L 403.203403 45.032727 
L 403.238877 45.032727 
L 403.353183 45.294545 
L 403.404424 45.294545 
L 403.518729 45.556364 
L 403.530554 45.556364 
L 403.64486 45.818182 
L 403.672451 45.818182 
L 403.786757 46.08 
L 403.818289 46.08 
L 403.932595 46.341818 
L 403.972011 46.341818 
L 404.086317 46.603636 
L 404.125733 46.603636 
L 404.240039 46.865455 
L 404.255805 46.865455 
L 404.370111 47.127273 
L 404.39376 47.127273 
L 404.512008 47.650909 
L 404.638138 47.650909 
L 404.752444 47.912727 
L 404.764269 47.912727 
L 404.878575 48.174545 
L 404.894341 48.174545 
L 405.012588 48.698182 
L 405.122953 48.698182 
L 405.2412 49.221818 
L 405.347623 49.221818 
L 405.46587 49.745455 
L 405.552585 49.745455 
L 405.670832 50.269091 
L 405.718131 50.269091 
L 405.836379 50.792727 
L 405.911269 50.792727 
L 406.029516 51.316364 
L 406.08864 51.316364 
L 406.206887 51.84 
L 406.246303 51.84 
L 406.364551 52.363636 
L 406.41185 52.363636 
L 406.530097 52.887273 
L 406.569513 52.887273 
L 406.68776 53.410909 
L 406.715351 53.410909 
L 406.833599 53.934545 
L 406.845423 53.934545 
L 406.963671 54.458182 
L 406.983379 54.458182 
L 407.101626 54.981818 
L 407.133159 54.981818 
L 407.251406 55.505455 
L 407.255348 55.505455 
L 407.377537 56.290909 
L 407.440602 56.290909 
L 407.55885 56.814545 
L 407.574616 56.814545 
L 407.696805 57.6 
L 407.740162 57.6 
L 407.862351 58.385455 
L 407.893884 58.385455 
L 408.016073 59.170909 
L 408.055489 59.170909 
L 408.177678 59.956364 
L 408.20921 59.956364 
L 408.331399 60.741818 
L 408.347166 60.741818 
L 408.469355 61.527273 
L 408.485121 61.527273 
L 408.611252 62.574545 
L 408.642784 62.574545 
L 408.768915 63.621818 
L 408.800447 63.621818 
L 408.926578 64.669091 
L 408.938403 64.669091 
L 409.064533 65.716364 
L 409.076358 65.716364 
L 409.202489 66.763636 
L 409.20643 66.763636 
L 409.332561 67.810909 
L 409.344386 67.810909 
L 409.474458 69.12 
L 409.494166 69.12 
L 409.624238 70.429091 
L 409.628179 70.429091 
L 409.762193 72 
L 409.770076 72 
L 409.90409 73.570909 
L 409.908032 73.570909 
L 410.042045 75.141818 
L 410.045987 75.141818 
L 410.183942 76.974545 
L 410.191825 76.974545 
L 410.333722 79.069091 
L 410.349489 79.069091 
L 410.491386 81.163636 
L 410.499269 81.163636 
L 410.641166 83.258182 
L 410.65299 83.258182 
L 410.798829 85.614545 
L 410.806712 85.614545 
L 410.956492 88.232727 
L 410.960434 88.232727 
L 411.129922 92.16 
L 411.137805 92.16 
L 411.330942 97.658182 
L 411.338825 97.658182 
L 411.547729 104.203636 
L 411.555612 104.203636 
L 412.064076 145.309091 
L 412.237506 181.963636 
L 412.363636 274.909091 
L 412.363636 274.909091 
" style="fill:none;stroke:#00cfff;stroke-linecap:square;stroke-width:1.5;"/>
   </g>
   <g id="line2d_14">
    <path clip-path="url(#p24381c835c)" d="M 19.636364 20.683636 
L 25.915302 20.683636 
L 26.029607 20.421818 
L 29.092216 20.421818 
L 29.210463 20.16 
L 31.563587 20.16 
L 31.677893 19.898182 
L 33.84182 19.898182 
L 33.956126 19.636364 
L 36.250126 19.636364 
L 36.364432 19.374545 
L 38.713614 19.374545 
L 38.823978 19.112727 
L 41.508195 19.112727 
L 41.622501 18.850909 
L 44.255476 18.850909 
L 44.369782 18.589091 
L 47.085531 18.589091 
L 47.199837 18.327273 
L 50.345219 18.327273 
L 50.451641 18.065455 
L 54.01483 18.065455 
L 54.129136 17.803636 
L 57.834222 17.803636 
L 57.956411 17.541818 
L 62.185727 17.541818 
L 62.311857 17.28 
L 67.368905 17.28 
L 67.483211 17.018182 
L 72.855586 17.018182 
L 72.96595 16.756364 
L 79.438025 16.756364 
L 79.544448 16.494545 
L 86.749658 16.494545 
L 86.871847 16.232727 
L 94.155888 16.232727 
L 94.266252 15.970909 
L 103.095393 15.970909 
L 103.209698 15.709091 
L 113.067592 15.709091 
L 113.181898 15.447273 
L 125.720066 15.447273 
L 125.814664 15.185455 
L 139.405234 15.185455 
L 139.523481 14.923636 
L 157.611395 14.923636 
L 157.729642 14.661818 
L 181.071683 14.661818 
L 181.182047 14.4 
L 214.456871 14.4 
L 214.60271 14.138182 
L 257.8182 14.138182 
L 257.881265 13.876364 
L 309.590862 13.876364 
L 309.697285 13.614545 
L 358.474346 13.614545 
L 358.592593 13.352727 
L 403.187637 13.352727 
L 403.298001 13.090909 
L 412.363636 13.090909 
L 412.363636 13.090909 
" style="fill:none;stroke:#879908;stroke-linecap:square;stroke-width:1.5;"/>
   </g>
   <g id="line2d_15">
    <path clip-path="url(#p24381c835c)" d="M 19.636364 274.909091 
L 26.053257 274.909091 
L 26.171504 274.647273 
L 28.97791 274.647273 
L 29.092216 274.385455 
L 31.153662 274.385455 
L 31.27191 274.123636 
L 33.152044 274.123636 
L 33.26635 273.861818 
L 35.150425 273.861818 
L 35.264731 273.6 
L 37.184281 273.6 
L 37.294645 273.338182 
L 39.218136 273.338182 
L 39.332442 273.076364 
L 41.445129 273.076364 
L 41.567318 272.814545 
L 43.731246 272.814545 
L 43.845552 272.552727 
L 45.98583 272.552727 
L 46.100136 272.290909 
L 48.114284 272.290909 
L 48.236473 272.029091 
L 50.443758 272.029091 
L 50.550181 271.767273 
L 53.029435 271.767273 
L 53.135858 271.505455 
L 55.469273 271.505455 
L 55.583579 271.243636 
L 58.188964 271.243636 
L 58.307212 270.981818 
L 61.050552 270.981818 
L 61.168799 270.72 
L 64.156517 270.72 
L 64.270823 270.458182 
L 67.416204 270.458182 
L 67.538393 270.196364 
L 70.601002 270.196364 
L 70.715307 269.934545 
L 73.88828 269.934545 
L 74.010469 269.672727 
L 77.502709 269.672727 
L 77.613074 269.410909 
L 81.211737 269.410909 
L 81.326043 269.149091 
L 84.71186 269.149091 
L 84.822225 268.887273 
L 88.204101 268.887273 
L 88.330231 268.625455 
L 92.003785 268.625455 
L 92.110207 268.363636 
L 95.480259 268.363636 
L 95.606389 268.101818 
L 99.942128 268.101818 
L 100.052492 267.84 
L 103.726046 267.84 
L 103.840351 267.578182 
L 107.986894 267.578182 
L 108.109083 267.316364 
L 111.770812 267.316364 
L 111.873293 267.054545 
L 116.185382 267.054545 
L 116.299688 266.792727 
L 120.781265 266.792727 
L 120.907396 266.530909 
L 125.917145 266.530909 
L 126.015684 266.269091 
L 130.481495 266.269091 
L 130.599743 266.007273 
L 135.629199 266.007273 
L 135.747447 265.745455 
L 140.366979 265.745455 
L 140.477344 265.483636 
L 144.895856 265.483636 
L 145.025928 265.221818 
L 150.323412 265.221818 
L 150.41801 264.96 
L 156.259433 264.96 
L 156.389505 264.698182 
L 163.153257 264.698182 
L 163.354278 264.436364 
L 168.900082 264.436364 
L 169.014388 264.174545 
L 175.774199 264.174545 
L 175.892446 263.912727 
L 182.265982 263.912727 
L 182.380288 263.650909 
L 188.604044 263.650909 
L 188.698642 263.389091 
L 195.450569 263.389091 
L 195.580641 263.127273 
L 202.565122 263.127273 
L 202.699136 262.865455 
L 209.845222 262.865455 
L 209.931937 262.603636 
L 217.27116 262.603636 
L 217.377582 262.341818 
L 225.3514 262.341818 
L 225.422349 262.08 
L 231.267713 262.08 
L 231.362311 261.818182 
L 237.960517 261.818182 
L 238.051173 261.556364 
L 245.705723 261.556364 
L 245.800321 261.294545 
L 250.770654 261.294545 
L 250.865252 261.032727 
L 257.435867 261.032727 
L 257.542289 260.770909 
L 263.557142 260.770909 
L 263.639915 260.509091 
L 270.403667 260.509091 
L 270.525856 260.247273 
L 276.926983 260.247273 
L 277.084646 259.985455 
L 282.740815 259.985455 
L 282.847237 259.723636 
L 288.337859 259.723636 
L 288.456107 259.461818 
L 293.619577 259.461818 
L 293.737825 259.2 
L 298.412539 259.2 
L 298.566261 258.938182 
L 302.618206 258.938182 
L 302.724629 258.676364 
L 307.292921 258.676364 
L 307.367811 258.414545 
L 311.246326 258.414545 
L 311.372457 258.152727 
L 315.294329 258.152727 
L 315.388927 257.890909 
L 319.298975 257.890909 
L 319.40934 257.629091 
L 323.118367 257.629091 
L 323.220848 257.367273 
L 326.862869 257.367273 
L 326.973233 257.105455 
L 330.240803 257.105455 
L 330.343284 256.843636 
L 333.717277 256.843636 
L 333.8237 256.581818 
L 337.177985 256.581818 
L 337.252875 256.32 
L 340.149937 256.32 
L 340.272126 256.058182 
L 342.960284 256.058182 
L 343.102181 255.796364 
L 345.936177 255.796364 
L 346.050483 255.534545 
L 348.557329 255.534545 
L 348.679518 255.272727 
L 351.158772 255.272727 
L 351.280961 255.010909 
L 353.421239 255.010909 
L 353.535545 254.749091 
L 355.533926 254.749091 
L 355.652174 254.487273 
L 357.5126 254.487273 
L 357.63873 254.225455 
L 359.514923 254.225455 
L 359.629229 253.963636 
L 361.426589 253.963636 
L 361.521187 253.701818 
L 363.543218 253.701818 
L 363.665407 253.44 
L 365.305105 253.44 
L 365.415469 253.178182 
L 366.897503 253.178182 
L 367.027576 252.916364 
L 368.355888 252.916364 
L 368.470194 252.654545 
L 369.826098 252.654545 
L 369.936462 252.392727 
L 371.32784 252.392727 
L 371.446087 252.130909 
L 372.565496 252.130909 
L 372.671919 251.869091 
L 373.822861 251.869091 
L 373.9214 251.607273 
L 375.174823 251.607273 
L 375.285187 251.345455 
L 376.294232 251.345455 
L 376.408538 251.083636 
L 377.476706 251.083636 
L 377.58707 250.821818 
L 378.544874 250.821818 
L 378.655239 250.56 
L 379.620926 250.56 
L 379.735232 250.298182 
L 380.62997 250.298182 
L 380.744276 250.036364 
L 381.615366 250.036364 
L 381.737555 249.774545 
L 382.569228 249.774545 
L 382.687476 249.512727 
L 383.491558 249.512727 
L 383.605864 249.250909 
L 384.390238 249.250909 
L 384.504544 248.989091 
L 385.190379 248.989091 
L 385.304685 248.727273 
L 385.966871 248.727273 
L 386.073293 248.465455 
L 386.770953 248.465455 
L 386.877376 248.203636 
L 387.456788 248.203636 
L 387.571094 247.941818 
L 388.075616 247.941818 
L 388.193864 247.68 
L 388.690503 247.68 
L 388.812692 247.418182 
L 389.388163 247.418182 
L 389.502469 247.156364 
L 390.006991 247.156364 
L 390.121297 246.894545 
L 390.590345 246.894545 
L 390.708592 246.632727 
L 391.213115 246.632727 
L 391.323479 246.370909 
L 391.820118 246.370909 
L 391.934424 246.109091 
L 392.320699 246.109091 
L 392.435005 245.847273 
L 392.837046 245.847273 
L 392.951352 245.585455 
L 393.333685 245.585455 
L 393.444049 245.323636 
L 393.751492 245.323636 
L 393.861857 245.061818 
L 394.173242 245.061818 
L 394.287547 244.8 
L 394.614699 244.8 
L 394.729004 244.538182 
L 395.028565 244.538182 
L 395.138929 244.276364 
L 395.403015 244.276364 
L 395.517321 244.014545 
L 395.781407 244.014545 
L 395.895712 243.752727 
L 396.175565 243.752727 
L 396.285929 243.490909 
L 396.585489 243.490909 
L 396.695853 243.229091 
L 396.948114 243.229091 
L 397.06242 242.967273 
L 397.275266 242.967273 
L 397.389571 242.705455 
L 397.633949 242.705455 
L 397.752197 242.443636 
L 397.941393 242.443636 
L 398.055699 242.181818 
L 398.260661 242.181818 
L 398.374967 241.92 
L 398.591754 241.92 
L 398.706059 241.658182 
L 398.88343 241.658182 
L 398.997736 241.396364 
L 399.147516 241.396364 
L 399.261822 241.134545 
L 399.443135 241.134545 
L 399.557441 240.872727 
L 399.707221 240.872727 
L 399.821527 240.610909 
L 399.987073 240.610909 
L 400.101379 240.349091 
L 400.251159 240.349091 
L 400.365465 240.087273 
L 400.479771 240.087273 
L 400.594076 239.825455 
L 400.739915 239.825455 
L 400.854221 239.563636 
L 400.988235 239.563636 
L 401.10254 239.301818 
L 401.197138 239.301818 
L 401.311444 239.04 
L 401.413925 239.04 
L 401.528231 238.778182 
L 401.622829 238.778182 
L 401.737135 238.516364 
L 401.788375 238.516364 
L 401.902681 238.254545 
L 401.985454 238.254545 
L 402.09976 237.992727 
L 402.17465 237.992727 
L 402.288956 237.730909 
L 402.34808 237.730909 
L 402.462386 237.469091 
L 402.549101 237.469091 
L 402.663406 237.207273 
L 402.718588 237.207273 
L 402.832894 236.945455 
L 402.899901 236.945455 
L 403.014207 236.683636 
L 403.093039 236.683636 
L 403.207344 236.421818 
L 403.242819 236.421818 
L 403.357125 236.16 
L 403.412307 236.16 
L 403.526613 235.898182 
L 403.542379 235.898182 
L 403.656685 235.636364 
L 403.692159 235.636364 
L 403.806465 235.374545 
L 403.841939 235.374545 
L 403.956245 235.112727 
L 404.003544 235.112727 
L 404.11785 234.850909 
L 404.149382 234.850909 
L 404.263688 234.589091 
L 404.283396 234.589091 
L 404.397702 234.327273 
L 404.41741 234.327273 
L 404.531716 234.065455 
L 404.54354 234.065455 
L 404.657846 233.803636 
L 404.669671 233.803636 
L 404.783977 233.541818 
L 404.811568 233.541818 
L 404.929815 233.018182 
L 405.040179 233.018182 
L 405.154485 232.756364 
L 405.174193 232.756364 
L 405.292441 232.232727 
L 405.39098 232.232727 
L 405.509228 231.709091 
L 405.603826 231.709091 
L 405.722073 231.185455 
L 405.769372 231.185455 
L 405.887619 230.661818 
L 405.962509 230.661818 
L 406.080757 230.138182 
L 406.135939 230.138182 
L 406.254186 229.614545 
L 406.317252 229.614545 
L 406.435499 229.090909 
L 406.478856 229.090909 
L 406.597104 228.567273 
L 406.632578 228.567273 
L 406.750825 228.043636 
L 406.774475 228.043636 
L 406.892722 227.52 
L 406.916372 227.52 
L 407.034619 226.996364 
L 407.058269 226.996364 
L 407.176516 226.472727 
L 407.200166 226.472727 
L 407.322355 225.687273 
L 407.38542 225.687273 
L 407.503667 225.163636 
L 407.523375 225.163636 
L 407.641623 224.64 
L 407.645564 224.64 
L 407.767753 223.854545 
L 407.811111 223.854545 
L 407.9333 223.069091 
L 407.980599 223.069091 
L 408.102788 222.283636 
L 408.13432 222.283636 
L 408.256509 221.498182 
L 408.280159 221.498182 
L 408.402348 220.712727 
L 408.422056 220.712727 
L 408.544245 219.927273 
L 408.560011 219.927273 
L 408.686142 218.88 
L 408.713733 218.88 
L 408.839863 217.832727 
L 408.871396 217.832727 
L 408.997526 216.785455 
L 409.013293 216.785455 
L 409.139423 215.738182 
L 409.151248 215.738182 
L 409.277379 214.690909 
L 409.289203 214.690909 
L 409.415334 213.643636 
L 409.419276 213.643636 
L 409.549348 212.334545 
L 409.561173 212.334545 
L 409.695186 210.763636 
L 409.718836 210.763636 
L 409.852849 209.192727 
L 409.860733 209.192727 
L 409.994746 207.621818 
L 410.00263 207.621818 
L 410.140585 205.789091 
L 410.156351 205.789091 
L 410.294307 203.956364 
L 410.306131 203.956364 
L 410.448028 201.861818 
L 410.459853 201.861818 
L 410.60175 199.767273 
L 410.617516 199.767273 
L 410.763355 197.410909 
L 410.779121 197.410909 
L 410.928901 194.792727 
L 410.936784 194.792727 
L 411.098389 191.389091 
L 411.106272 191.389091 
L 411.291526 186.414545 
L 411.295468 186.414545 
L 411.492547 180.654545 
L 411.496489 180.654545 
L 412.103492 133.003636 
L 412.241447 101.323636 
L 412.363636 13.090909 
L 412.363636 13.090909 
" style="fill:none;stroke:#000000;stroke-linecap:square;stroke-width:1.5;"/>
   </g>
   <g id="patch_3">
    <path d="M 0 288 
L 0 0 
" style="fill:none;stroke:#000000;stroke-linecap:square;stroke-linejoin:miter;stroke-width:0.8;"/>
   </g>
   <g id="patch_4">
    <path d="M 432 288 
L 432 0 
" style="fill:none;stroke:#000000;stroke-linecap:square;stroke-linejoin:miter;stroke-width:0.8;"/>
   </g>
   <g id="patch_5">
    <path d="M 0 288 
L 432 288 
" style="fill:none;stroke:#000000;stroke-linecap:square;stroke-linejoin:miter;stroke-width:0.8;"/>
   </g>
   <g id="patch_6">
    <path d="M 0 0 
L 432 0 
" style="fill:none;stroke:#000000;stroke-linecap:square;stroke-linejoin:miter;stroke-width:0.8;"/>
   </g>
   <g id="text_14">
    <!-- English Wikipedia draft quality OK precision vs. recall -->
    <defs>
     <path d="M 9.8125 72.90625 
L 55.90625 72.90625 
L 55.90625 64.59375 
L 19.671875 64.59375 
L 19.671875 43.015625 
L 54.390625 43.015625 
L 54.390625 34.71875 
L 19.671875 34.71875 
L 19.671875 8.296875 
L 56.78125 8.296875 
L 56.78125 0 
L 9.8125 0 
z
" id="DejaVuSans-45"/>
     <path d="M 54.890625 33.015625 
L 54.890625 0 
L 45.90625 0 
L 45.90625 32.71875 
Q 45.90625 40.484375 42.875 44.328125 
Q 39.84375 48.1875 33.796875 48.1875 
Q 26.515625 48.1875 22.3125 43.546875 
Q 18.109375 38.921875 18.109375 30.90625 
L 18.109375 0 
L 9.078125 0 
L 9.078125 54.6875 
L 18.109375 54.6875 
L 18.109375 46.1875 
Q 21.34375 51.125 25.703125 53.5625 
Q 30.078125 56 35.796875 56 
Q 45.21875 56 50.046875 50.171875 
Q 54.890625 44.34375 54.890625 33.015625 
z
" id="DejaVuSans-6e"/>
     <path d="M 45.40625 27.984375 
Q 45.40625 37.75 41.375 43.109375 
Q 37.359375 48.484375 30.078125 48.484375 
Q 22.859375 48.484375 18.828125 43.109375 
Q 14.796875 37.75 14.796875 27.984375 
Q 14.796875 18.265625 18.828125 12.890625 
Q 22.859375 7.515625 30.078125 7.515625 
Q 37.359375 7.515625 41.375 12.890625 
Q 45.40625 18.265625 45.40625 27.984375 
z
M 54.390625 6.78125 
Q 54.390625 -7.171875 48.1875 -13.984375 
Q 42 -20.796875 29.203125 -20.796875 
Q 24.46875 -20.796875 20.265625 -20.09375 
Q 16.0625 -19.390625 12.109375 -17.921875 
L 12.109375 -9.1875 
Q 16.0625 -11.328125 19.921875 -12.34375 
Q 23.78125 -13.375 27.78125 -13.375 
Q 36.625 -13.375 41.015625 -8.765625 
Q 45.40625 -4.15625 45.40625 5.171875 
L 45.40625 9.625 
Q 42.625 4.78125 38.28125 2.390625 
Q 33.9375 0 27.875 0 
Q 17.828125 0 11.671875 7.65625 
Q 5.515625 15.328125 5.515625 27.984375 
Q 5.515625 40.671875 11.671875 48.328125 
Q 17.828125 56 27.875 56 
Q 33.9375 56 38.28125 53.609375 
Q 42.625 51.21875 45.40625 46.390625 
L 45.40625 54.6875 
L 54.390625 54.6875 
z
" id="DejaVuSans-67"/>
     <path d="M 9.421875 54.6875 
L 18.40625 54.6875 
L 18.40625 0 
L 9.421875 0 
z
M 9.421875 75.984375 
L 18.40625 75.984375 
L 18.40625 64.59375 
L 9.421875 64.59375 
z
" id="DejaVuSans-69"/>
     <path id="DejaVuSans-20"/>
     <path d="M 3.328125 72.90625 
L 13.28125 72.90625 
L 28.609375 11.28125 
L 43.890625 72.90625 
L 54.984375 72.90625 
L 70.3125 11.28125 
L 85.59375 72.90625 
L 95.609375 72.90625 
L 77.296875 0 
L 64.890625 0 
L 49.515625 63.28125 
L 33.984375 0 
L 21.578125 0 
z
" id="DejaVuSans-57"/>
     <path d="M 9.078125 75.984375 
L 18.109375 75.984375 
L 18.109375 31.109375 
L 44.921875 54.6875 
L 56.390625 54.6875 
L 27.390625 29.109375 
L 57.625 0 
L 45.90625 0 
L 18.109375 26.703125 
L 18.109375 0 
L 9.078125 0 
z
" id="DejaVuSans-6b"/>
     <path d="M 18.109375 8.203125 
L 18.109375 -20.796875 
L 9.078125 -20.796875 
L 9.078125 54.6875 
L 18.109375 54.6875 
L 18.109375 46.390625 
Q 20.953125 51.265625 25.265625 53.625 
Q 29.59375 56 35.59375 56 
Q 45.5625 56 51.78125 48.09375 
Q 58.015625 40.1875 58.015625 27.296875 
Q 58.015625 14.40625 51.78125 6.484375 
Q 45.5625 -1.421875 35.59375 -1.421875 
Q 29.59375 -1.421875 25.265625 0.953125 
Q 20.953125 3.328125 18.109375 8.203125 
z
M 48.6875 27.296875 
Q 48.6875 37.203125 44.609375 42.84375 
Q 40.53125 48.484375 33.40625 48.484375 
Q 26.265625 48.484375 22.1875 42.84375 
Q 18.109375 37.203125 18.109375 27.296875 
Q 18.109375 17.390625 22.1875 11.75 
Q 26.265625 6.109375 33.40625 6.109375 
Q 40.53125 6.109375 44.609375 11.75 
Q 48.6875 17.390625 48.6875 27.296875 
z
" id="DejaVuSans-70"/>
     <path d="M 34.28125 27.484375 
Q 23.390625 27.484375 19.1875 25 
Q 14.984375 22.515625 14.984375 16.5 
Q 14.984375 11.71875 18.140625 8.90625 
Q 21.296875 6.109375 26.703125 6.109375 
Q 34.1875 6.109375 38.703125 11.40625 
Q 43.21875 16.703125 43.21875 25.484375 
L 43.21875 27.484375 
z
M 52.203125 31.203125 
L 52.203125 0 
L 43.21875 0 
L 43.21875 8.296875 
Q 40.140625 3.328125 35.546875 0.953125 
Q 30.953125 -1.421875 24.3125 -1.421875 
Q 15.921875 -1.421875 10.953125 3.296875 
Q 6 8.015625 6 15.921875 
Q 6 25.140625 12.171875 29.828125 
Q 18.359375 34.515625 30.609375 34.515625 
L 43.21875 34.515625 
L 43.21875 35.40625 
Q 43.21875 41.609375 39.140625 45 
Q 35.0625 48.390625 27.6875 48.390625 
Q 23 48.390625 18.546875 47.265625 
Q 14.109375 46.140625 10.015625 43.890625 
L 10.015625 52.203125 
Q 14.9375 54.109375 19.578125 55.046875 
Q 24.21875 56 28.609375 56 
Q 40.484375 56 46.34375 49.84375 
Q 52.203125 43.703125 52.203125 31.203125 
z
" id="DejaVuSans-61"/>
     <path d="M 37.109375 75.984375 
L 37.109375 68.5 
L 28.515625 68.5 
Q 23.6875 68.5 21.796875 66.546875 
Q 19.921875 64.59375 19.921875 59.515625 
L 19.921875 54.6875 
L 34.71875 54.6875 
L 34.71875 47.703125 
L 19.921875 47.703125 
L 19.921875 0 
L 10.890625 0 
L 10.890625 47.703125 
L 2.296875 47.703125 
L 2.296875 54.6875 
L 10.890625 54.6875 
L 10.890625 58.5 
Q 10.890625 67.625 15.140625 71.796875 
Q 19.390625 75.984375 28.609375 75.984375 
z
" id="DejaVuSans-66"/>
     <path d="M 18.3125 70.21875 
L 18.3125 54.6875 
L 36.8125 54.6875 
L 36.8125 47.703125 
L 18.3125 47.703125 
L 18.3125 18.015625 
Q 18.3125 11.328125 20.140625 9.421875 
Q 21.96875 7.515625 27.59375 7.515625 
L 36.8125 7.515625 
L 36.8125 0 
L 27.59375 0 
Q 17.1875 0 13.234375 3.875 
Q 9.28125 7.765625 9.28125 18.015625 
L 9.28125 47.703125 
L 2.6875 47.703125 
L 2.6875 54.6875 
L 9.28125 54.6875 
L 9.28125 70.21875 
z
" id="DejaVuSans-74"/>
     <path d="M 14.796875 27.296875 
Q 14.796875 17.390625 18.875 11.75 
Q 22.953125 6.109375 30.078125 6.109375 
Q 37.203125 6.109375 41.296875 11.75 
Q 45.40625 17.390625 45.40625 27.296875 
Q 45.40625 37.203125 41.296875 42.84375 
Q 37.203125 48.484375 30.078125 48.484375 
Q 22.953125 48.484375 18.875 42.84375 
Q 14.796875 37.203125 14.796875 27.296875 
z
M 45.40625 8.203125 
Q 42.578125 3.328125 38.25 0.953125 
Q 33.9375 -1.421875 27.875 -1.421875 
Q 17.96875 -1.421875 11.734375 6.484375 
Q 5.515625 14.40625 5.515625 27.296875 
Q 5.515625 40.1875 11.734375 48.09375 
Q 17.96875 56 27.875 56 
Q 33.9375 56 38.25 53.625 
Q 42.578125 51.265625 45.40625 46.390625 
L 45.40625 54.6875 
L 54.390625 54.6875 
L 54.390625 -20.796875 
L 45.40625 -20.796875 
z
" id="DejaVuSans-71"/>
     <path d="M 8.5 21.578125 
L 8.5 54.6875 
L 17.484375 54.6875 
L 17.484375 21.921875 
Q 17.484375 14.15625 20.5 10.265625 
Q 23.53125 6.390625 29.59375 6.390625 
Q 36.859375 6.390625 41.078125 11.03125 
Q 45.3125 15.671875 45.3125 23.6875 
L 45.3125 54.6875 
L 54.296875 54.6875 
L 54.296875 0 
L 45.3125 0 
L 45.3125 8.40625 
Q 42.046875 3.421875 37.71875 1 
Q 33.40625 -1.421875 27.6875 -1.421875 
Q 18.265625 -1.421875 13.375 4.4375 
Q 8.5 10.296875 8.5 21.578125 
z
M 31.109375 56 
z
" id="DejaVuSans-75"/>
     <path d="M 32.171875 -5.078125 
Q 28.375 -14.84375 24.75 -17.8125 
Q 21.140625 -20.796875 15.09375 -20.796875 
L 7.90625 -20.796875 
L 7.90625 -13.28125 
L 13.1875 -13.28125 
Q 16.890625 -13.28125 18.9375 -11.515625 
Q 21 -9.765625 23.484375 -3.21875 
L 25.09375 0.875 
L 2.984375 54.6875 
L 12.5 54.6875 
L 29.59375 11.921875 
L 46.6875 54.6875 
L 56.203125 54.6875 
z
" id="DejaVuSans-79"/>
     <path d="M 39.40625 66.21875 
Q 28.65625 66.21875 22.328125 58.203125 
Q 16.015625 50.203125 16.015625 36.375 
Q 16.015625 22.609375 22.328125 14.59375 
Q 28.65625 6.59375 39.40625 6.59375 
Q 50.140625 6.59375 56.421875 14.59375 
Q 62.703125 22.609375 62.703125 36.375 
Q 62.703125 50.203125 56.421875 58.203125 
Q 50.140625 66.21875 39.40625 66.21875 
z
M 39.40625 74.21875 
Q 54.734375 74.21875 63.90625 63.9375 
Q 73.09375 53.65625 73.09375 36.375 
Q 73.09375 19.140625 63.90625 8.859375 
Q 54.734375 -1.421875 39.40625 -1.421875 
Q 24.03125 -1.421875 14.8125 8.828125 
Q 5.609375 19.09375 5.609375 36.375 
Q 5.609375 53.65625 14.8125 63.9375 
Q 24.03125 74.21875 39.40625 74.21875 
z
" id="DejaVuSans-4f"/>
     <path d="M 9.8125 72.90625 
L 19.671875 72.90625 
L 19.671875 42.09375 
L 52.390625 72.90625 
L 65.09375 72.90625 
L 28.90625 38.921875 
L 67.671875 0 
L 54.6875 0 
L 19.671875 35.109375 
L 19.671875 0 
L 9.8125 0 
z
" id="DejaVuSans-4b"/>
     <path d="M 48.78125 52.59375 
L 48.78125 44.1875 
Q 44.96875 46.296875 41.140625 47.34375 
Q 37.3125 48.390625 33.40625 48.390625 
Q 24.65625 48.390625 19.8125 42.84375 
Q 14.984375 37.3125 14.984375 27.296875 
Q 14.984375 17.28125 19.8125 11.734375 
Q 24.65625 6.203125 33.40625 6.203125 
Q 37.3125 6.203125 41.140625 7.25 
Q 44.96875 8.296875 48.78125 10.40625 
L 48.78125 2.09375 
Q 45.015625 0.34375 40.984375 -0.53125 
Q 36.96875 -1.421875 32.421875 -1.421875 
Q 20.0625 -1.421875 12.78125 6.34375 
Q 5.515625 14.109375 5.515625 27.296875 
Q 5.515625 40.671875 12.859375 48.328125 
Q 20.21875 56 33.015625 56 
Q 37.15625 56 41.109375 55.140625 
Q 45.0625 54.296875 48.78125 52.59375 
z
" id="DejaVuSans-63"/>
     <path d="M 2.984375 54.6875 
L 12.5 54.6875 
L 29.59375 8.796875 
L 46.6875 54.6875 
L 56.203125 54.6875 
L 35.6875 0 
L 23.484375 0 
z
" id="DejaVuSans-76"/>
    </defs>
    <g transform="translate(55.7475 -6)scale(0.12 -0.12)">
     <use xlink:href="#DejaVuSans-45"/>
     <use x="63.183594" xlink:href="#DejaVuSans-6e"/>
     <use x="126.5625" xlink:href="#DejaVuSans-67"/>
     <use x="190.039062" xlink:href="#DejaVuSans-6c"/>
     <use x="217.822266" xlink:href="#DejaVuSans-69"/>
     <use x="245.605469" xlink:href="#DejaVuSans-73"/>
     <use x="297.705078" xlink:href="#DejaVuSans-68"/>
     <use x="361.083984" xlink:href="#DejaVuSans-20"/>
     <use x="392.871094" xlink:href="#DejaVuSans-57"/>
     <use x="491.716797" xlink:href="#DejaVuSans-69"/>
     <use x="519.5" xlink:href="#DejaVuSans-6b"/>
     <use x="577.410156" xlink:href="#DejaVuSans-69"/>
     <use x="605.193359" xlink:href="#DejaVuSans-70"/>
     <use x="668.669922" xlink:href="#DejaVuSans-65"/>
     <use x="730.193359" xlink:href="#DejaVuSans-64"/>
     <use x="793.669922" xlink:href="#DejaVuSans-69"/>
     <use x="821.453125" xlink:href="#DejaVuSans-61"/>
     <use x="882.732422" xlink:href="#DejaVuSans-20"/>
     <use x="914.519531" xlink:href="#DejaVuSans-64"/>
     <use x="977.996094" xlink:href="#DejaVuSans-72"/>
     <use x="1019.109375" xlink:href="#DejaVuSans-61"/>
     <use x="1080.388672" xlink:href="#DejaVuSans-66"/>
     <use x="1115.578125" xlink:href="#DejaVuSans-74"/>
     <use x="1154.787109" xlink:href="#DejaVuSans-20"/>
     <use x="1186.574219" xlink:href="#DejaVuSans-71"/>
     <use x="1250.050781" xlink:href="#DejaVuSans-75"/>
     <use x="1313.429688" xlink:href="#DejaVuSans-61"/>
     <use x="1374.708984" xlink:href="#DejaVuSans-6c"/>
     <use x="1402.492188" xlink:href="#DejaVuSans-69"/>
     <use x="1430.275391" xlink:href="#DejaVuSans-74"/>
     <use x="1469.484375" xlink:href="#DejaVuSans-79"/>
     <use x="1528.664062" xlink:href="#DejaVuSans-20"/>
     <use x="1560.451172" xlink:href="#DejaVuSans-4f"/>
     <use x="1639.162109" xlink:href="#DejaVuSans-4b"/>
     <use x="1704.738281" xlink:href="#DejaVuSans-20"/>
     <use x="1736.525391" xlink:href="#DejaVuSans-70"/>
     <use x="1800.001953" xlink:href="#DejaVuSans-72"/>
     <use x="1841.083984" xlink:href="#DejaVuSans-65"/>
     <use x="1902.607422" xlink:href="#DejaVuSans-63"/>
     <use x="1957.587891" xlink:href="#DejaVuSans-69"/>
     <use x="1985.371094" xlink:href="#DejaVuSans-73"/>
     <use x="2037.470703" xlink:href="#DejaVuSans-69"/>
     <use x="2065.253906" xlink:href="#DejaVuSans-6f"/>
     <use x="2126.435547" xlink:href="#DejaVuSans-6e"/>
     <use x="2189.814453" xlink:href="#DejaVuSans-20"/>
     <use x="2221.601562" xlink:href="#DejaVuSans-76"/>
     <use x="2280.78125" xlink:href="#DejaVuSans-73"/>
     <use x="2332.880859" xlink:href="#DejaVuSans-2e"/>
     <use x="2364.667969" xlink:href="#DejaVuSans-20"/>
     <use x="2396.455078" xlink:href="#DejaVuSans-72"/>
     <use x="2437.537109" xlink:href="#DejaVuSans-65"/>
     <use x="2499.060547" xlink:href="#DejaVuSans-63"/>
     <use x="2554.041016" xlink:href="#DejaVuSans-61"/>
     <use x="2615.320312" xlink:href="#DejaVuSans-6c"/>
     <use x="2643.103516" xlink:href="#DejaVuSans-6c"/>
    </g>
   </g>
   <g id="legend_1">
    <g id="patch_7">
     <path d="M 7 167.517188 
L 87.971875 167.517188 
Q 89.971875 167.517188 89.971875 165.517188 
L 89.971875 122.482812 
Q 89.971875 120.482812 87.971875 120.482812 
L 7 120.482812 
Q 5 120.482812 5 122.482812 
L 5 165.517188 
Q 5 167.517188 7 167.517188 
z
" style="fill:#ffffff;opacity:0.8;stroke:#cccccc;stroke-linejoin:miter;"/>
    </g>
    <g id="line2d_16">
     <path d="M 9 128.58125 
L 29 128.58125 
" style="fill:none;stroke:#00cfff;stroke-linecap:square;stroke-width:1.5;"/>
    </g>
    <g id="line2d_17"/>
    <g id="text_15">
     <!-- Recall -->
     <defs>
      <path d="M 44.390625 34.1875 
Q 47.5625 33.109375 50.5625 29.59375 
Q 53.5625 26.078125 56.59375 19.921875 
L 66.609375 0 
L 56 0 
L 46.6875 18.703125 
Q 43.0625 26.03125 39.671875 28.421875 
Q 36.28125 30.8125 30.421875 30.8125 
L 19.671875 30.8125 
L 19.671875 0 
L 9.8125 0 
L 9.8125 72.90625 
L 32.078125 72.90625 
Q 44.578125 72.90625 50.734375 67.671875 
Q 56.890625 62.453125 56.890625 51.90625 
Q 56.890625 45.015625 53.6875 40.46875 
Q 50.484375 35.9375 44.390625 34.1875 
z
M 19.671875 64.796875 
L 19.671875 38.921875 
L 32.078125 38.921875 
Q 39.203125 38.921875 42.84375 42.21875 
Q 46.484375 45.515625 46.484375 51.90625 
Q 46.484375 58.296875 42.84375 61.546875 
Q 39.203125 64.796875 32.078125 64.796875 
z
" id="DejaVuSans-52"/>
     </defs>
     <g transform="translate(37 132.08125)scale(0.1 -0.1)">
      <use xlink:href="#DejaVuSans-52"/>
      <use x="69.419922" xlink:href="#DejaVuSans-65"/>
      <use x="130.943359" xlink:href="#DejaVuSans-63"/>
      <use x="185.923828" xlink:href="#DejaVuSans-61"/>
      <use x="247.203125" xlink:href="#DejaVuSans-6c"/>
      <use x="274.986328" xlink:href="#DejaVuSans-6c"/>
     </g>
    </g>
    <g id="line2d_18">
     <path d="M 9 143.259375 
L 29 143.259375 
" style="fill:none;stroke:#879908;stroke-linecap:square;stroke-width:1.5;"/>
    </g>
    <g id="line2d_19"/>
    <g id="text_16">
     <!-- Precision -->
     <defs>
      <path d="M 19.671875 64.796875 
L 19.671875 37.40625 
L 32.078125 37.40625 
Q 38.96875 37.40625 42.71875 40.96875 
Q 46.484375 44.53125 46.484375 51.125 
Q 46.484375 57.671875 42.71875 61.234375 
Q 38.96875 64.796875 32.078125 64.796875 
z
M 9.8125 72.90625 
L 32.078125 72.90625 
Q 44.34375 72.90625 50.609375 67.359375 
Q 56.890625 61.8125 56.890625 51.125 
Q 56.890625 40.328125 50.609375 34.8125 
Q 44.34375 29.296875 32.078125 29.296875 
L 19.671875 29.296875 
L 19.671875 0 
L 9.8125 0 
z
" id="DejaVuSans-50"/>
     </defs>
     <g transform="translate(37 146.759375)scale(0.1 -0.1)">
      <use xlink:href="#DejaVuSans-50"/>
      <use x="60.287109" xlink:href="#DejaVuSans-72"/>
      <use x="101.369141" xlink:href="#DejaVuSans-65"/>
      <use x="162.892578" xlink:href="#DejaVuSans-63"/>
      <use x="217.873047" xlink:href="#DejaVuSans-69"/>
      <use x="245.65625" xlink:href="#DejaVuSans-73"/>
      <use x="297.755859" xlink:href="#DejaVuSans-69"/>
      <use x="325.539062" xlink:href="#DejaVuSans-6f"/>
      <use x="386.720703" xlink:href="#DejaVuSans-6e"/>
     </g>
    </g>
    <g id="line2d_20">
     <path d="M 9 157.9375 
L 29 157.9375 
" style="fill:none;stroke:#000000;stroke-linecap:square;stroke-width:1.5;"/>
    </g>
    <g id="line2d_21"/>
    <g id="text_17">
     <!-- Filter rate -->
     <defs>
      <path d="M 9.8125 72.90625 
L 51.703125 72.90625 
L 51.703125 64.59375 
L 19.671875 64.59375 
L 19.671875 43.109375 
L 48.578125 43.109375 
L 48.578125 34.8125 
L 19.671875 34.8125 
L 19.671875 0 
L 9.8125 0 
z
" id="DejaVuSans-46"/>
     </defs>
     <g transform="translate(37 161.4375)scale(0.1 -0.1)">
      <use xlink:href="#DejaVuSans-46"/>
      <use x="57.410156" xlink:href="#DejaVuSans-69"/>
      <use x="85.193359" xlink:href="#DejaVuSans-6c"/>
      <use x="112.976562" xlink:href="#DejaVuSans-74"/>
      <use x="152.185547" xlink:href="#DejaVuSans-65"/>
      <use x="213.708984" xlink:href="#DejaVuSans-72"/>
      <use x="254.822266" xlink:href="#DejaVuSans-20"/>
      <use x="286.609375" xlink:href="#DejaVuSans-72"/>
      <use x="327.722656" xlink:href="#DejaVuSans-61"/>
      <use x="389.001953" xlink:href="#DejaVuSans-74"/>
      <use x="428.210938" xlink:href="#DejaVuSans-65"/>
     </g>
    </g>
   </g>
  </g>
 </g>
 <defs>
  <clipPath id="p24381c835c">
   <rect height="288" width="432" x="0" y="0"/>
  </clipPath>
 </defs>
</svg>
